<svg width="277" height="32" viewBox="0 0 277 32" fill="none" xmlns="http://www.w3.org/2000/svg">
<rect x="0.5" y="0.5" width="44" height="30.7647" rx="4.79412" fill="#1A1A1A" stroke="#333333"/>
<path fillRule="evenodd" clipRule="evenodd" d="M12.5076 11.0424C12.1299 11.5081 11.5255 11.8755 10.9212 11.823C10.8456 11.1932 11.1415 10.5241 11.4877 10.1109C11.8655 9.632 12.5265 9.29089 13.0615 9.26465C13.1245 9.92063 12.879 10.5635 12.5076 11.0424ZM13.0545 11.9476C12.522 11.9157 12.0362 12.1144 11.6438 12.275C11.3913 12.3783 11.1775 12.4658 11.0148 12.4658C10.8322 12.4658 10.6096 12.3736 10.3596 12.2702C10.032 12.1345 9.65749 11.9795 9.26475 11.9869C8.36453 12.0001 7.52727 12.5314 7.06773 13.3776C6.12345 15.0701 6.82221 17.5759 7.73502 18.9535C8.18197 19.6357 8.71707 20.3835 9.42213 20.3573C9.73231 20.3451 9.95544 20.2464 10.1864 20.1443C10.4522 20.0268 10.7284 19.9046 11.1596 19.9046C11.5759 19.9046 11.84 20.0236 12.0935 20.1377C12.3345 20.2463 12.566 20.3505 12.9097 20.3441C13.6399 20.331 14.0995 19.6619 14.5464 18.9797C15.0288 18.2475 15.2407 17.5329 15.2729 17.4245L15.2767 17.4119C15.2759 17.4111 15.2699 17.4083 15.2594 17.4032C15.0982 17.3263 13.8658 16.7384 13.8539 15.1619C13.8421 13.8386 14.8315 13.1682 14.9872 13.0627C14.9967 13.0562 15.0031 13.0519 15.006 13.0496C14.3764 12.0788 13.3944 11.9738 13.0545 11.9476ZM18.1086 20.272V10.0452H21.7913C23.6924 10.0452 25.0207 11.4097 25.0207 13.4039C25.0207 15.398 23.6672 16.7756 21.7409 16.7756H19.632V20.272H18.1086ZM19.6337 11.3835H21.3901C22.7121 11.3835 23.4675 12.1182 23.4675 13.4105C23.4675 14.7027 22.7121 15.444 21.3838 15.444H19.6337V11.3835ZM30.0505 19.0453C29.6476 19.8456 28.76 20.3507 27.8031 20.3507C26.3867 20.3507 25.3983 19.4717 25.3983 18.1466C25.3983 16.8347 26.3552 16.0803 28.1241 15.9688L30.0253 15.8507V15.2865C30.0253 14.4535 29.5028 14.0008 28.5711 14.0008C27.8031 14.0008 27.2428 14.4141 27.1295 15.0438H25.7571C25.8012 13.7188 26.9973 12.7545 28.6152 12.7545C30.3589 12.7545 31.4921 13.7056 31.4921 15.1816V20.272H30.0819V19.0453H30.0505ZM28.213 19.1372C27.4009 19.1372 26.8847 18.7304 26.8847 18.1073C26.8847 17.4644 27.382 17.0905 28.3326 17.0315L30.026 16.9199V17.4972C30.026 18.4549 29.2454 19.1372 28.213 19.1372ZM36.1713 20.6721C35.5607 22.463 34.8619 23.0534 33.3763 23.0534C33.263 23.0534 32.8853 23.0402 32.7971 23.014V21.7873C32.8916 21.8004 33.1245 21.8136 33.2441 21.8136C33.9177 21.8136 34.2954 21.5184 34.5283 20.7509L34.6668 20.2982L32.0858 12.8529H33.6784L35.4726 18.8944H35.5041L37.2982 12.8529H38.8468L36.1713 20.6721Z" fill="white"/>
<rect x="53.5" y="0.5" width="44" height="30.7647" rx="4.79412" fill="#1A1A1A" stroke="#333333"/>
<path fillRule="evenodd" clipRule="evenodd" d="M67.2298 20.989H64.5037L62.4594 12.9606C62.3624 12.5913 62.1564 12.2648 61.8533 12.1109C61.097 11.7242 60.2636 11.4165 59.3545 11.2613V10.9522H63.7461C64.3522 10.9522 64.8067 11.4165 64.8825 11.9557L65.9432 17.7469L68.668 10.9522H71.3184L67.2298 20.989ZM72.8327 20.989H70.2581L72.3781 10.9522H74.9527L72.8327 20.989ZM78.2856 13.7327C78.3614 13.1921 78.8159 12.883 79.3463 12.883C80.1797 12.8054 81.0875 12.9606 81.8451 13.346L82.2997 11.185C81.5421 10.8759 80.7087 10.7207 79.9524 10.7207C77.4535 10.7207 75.6352 12.1109 75.6352 14.0404C75.6352 15.5083 76.9232 16.279 77.8323 16.7433C78.8159 17.2063 79.1947 17.5154 79.119 17.9783C79.119 18.6728 78.3614 18.9819 77.6051 18.9819C76.6959 18.9819 75.7868 18.7504 74.9547 18.3637L74.5001 20.526C75.4093 20.9114 76.3929 21.0666 77.302 21.0666C80.1039 21.1429 81.8451 19.7539 81.8451 17.6693C81.8451 15.044 78.2856 14.8901 78.2856 13.7327ZM90.8554 20.989L88.8111 10.9522H86.6153C86.1608 10.9522 85.7062 11.2613 85.5547 11.7242L81.7692 20.989H84.4196L84.9486 19.5225H88.205L88.5081 20.989H90.8554ZM86.9923 13.6551L87.7486 17.4378H85.6286L86.9923 13.6551Z" fill="white"/>
<rect x="106.5" y="0.5" width="44" height="30.7647" rx="4.79412" fill="#1A1A1A" stroke="#333333"/>
<path d="M124.529 30.6762L149.676 23.0659V26.7056C149.676 28.8985 147.899 30.6762 145.706 30.6762H124.529Z" fill="#FD6020"/>
<path fillRule="evenodd" clipRule="evenodd" d="M144.904 12.0583C146.288 12.0583 147.049 12.6983 147.049 13.9072C147.118 14.8316 146.495 15.6138 145.665 15.756L147.533 18.387H146.08L144.489 15.8271H144.351V18.387H143.175V12.0583H144.904ZM144.351 14.9738H144.696C145.457 14.9738 145.803 14.6183 145.803 13.9783C145.803 13.4094 145.457 13.0539 144.696 13.0539H144.351V14.9738ZM139.093 18.387H142.414V17.3204H140.269V15.6138H142.344V14.5471H140.269V13.125H142.414V12.0583H139.093V18.387ZM135.635 16.3249L134.044 12.0583H132.799L135.358 18.5293H135.981L138.54 12.0583H137.295L135.635 16.3249ZM121.593 15.2582C121.593 17.036 122.976 18.5293 124.706 18.5293C125.259 18.5293 125.743 18.3871 126.227 18.1737V16.7515C125.881 17.1782 125.397 17.4626 124.844 17.4626C123.737 17.4626 122.838 16.6093 122.838 15.4716V15.3294C122.769 14.1916 123.668 13.1961 124.775 13.125C125.328 13.125 125.881 13.4094 126.227 13.8361V12.4139C125.812 12.1294 125.259 12.0583 124.775 12.0583C122.976 11.9161 121.593 13.4094 121.593 15.2582ZM119.447 14.476C118.755 14.1916 118.547 14.0494 118.547 13.6938C118.617 13.2672 118.962 12.9116 119.378 12.9828C119.723 12.9828 120.069 13.1961 120.346 13.4805L120.969 12.6272C120.484 12.2005 119.862 11.9161 119.239 11.9161C118.271 11.845 117.441 12.6272 117.371 13.6227V13.6938C117.371 14.5472 117.717 15.0449 118.824 15.4005C119.101 15.4716 119.378 15.6138 119.654 15.756C119.862 15.8982 120 16.1116 120 16.396C120 16.8938 119.585 17.3204 119.17 17.3204H119.101C118.547 17.3204 118.063 16.9649 117.856 16.4671L117.095 17.2493C117.51 18.0315 118.34 18.4582 119.17 18.4582C120.277 18.5293 121.176 17.676 121.245 16.5382V16.3249C121.176 15.4716 120.83 15.0449 119.447 14.476ZM115.435 18.387H116.611V12.0583H115.435V18.387ZM109.97 12.0583H111.7H112.046C113.706 12.1294 115.02 13.5516 114.951 15.2582C114.951 16.1827 114.536 17.036 113.844 17.6759C113.222 18.1737 112.461 18.4581 111.7 18.387H109.97V12.0583ZM111.492 17.3204C112.046 17.3915 112.668 17.1782 113.083 16.8226C113.498 16.396 113.706 15.8271 113.706 15.1871C113.706 14.6182 113.498 14.0493 113.083 13.6227C112.668 13.2671 112.046 13.0538 111.492 13.1249H111.147V17.3204H111.492Z" fill="white"/>
<path fillRule="evenodd" clipRule="evenodd" d="M129.753 11.9116C128.024 11.9116 126.571 13.3338 126.571 15.1826C126.571 16.9604 127.955 18.4537 129.753 18.5248C131.552 18.5959 132.935 17.1026 133.005 15.2538C132.935 13.4049 131.552 11.9116 129.753 11.9116V11.9116Z" fill="#FD6020"/>
<rect x="159.5" y="0.5" width="44" height="30.7647" rx="4.79412" fill="#1A1A1A" stroke="#333333"/>
<path fillRule="evenodd" clipRule="evenodd" d="M187.558 24.3925C192.515 24.3925 196.533 20.4223 196.533 15.5249C196.533 10.6274 192.515 6.65723 187.558 6.65723C185.337 6.65723 183.304 7.45468 181.737 8.77567C180.17 7.45469 178.137 6.65723 175.916 6.65723C170.959 6.65723 166.941 10.6274 166.941 15.5249C166.941 20.4223 170.959 24.3925 175.916 24.3925C178.137 24.3925 180.17 23.5951 181.737 22.2741C183.304 23.5951 185.337 24.3925 187.558 24.3925Z" fill="#ED0006"/>
<path fillRule="evenodd" clipRule="evenodd" d="M181.736 22.274C183.666 20.6475 184.889 18.2274 184.889 15.5249C184.889 12.8224 183.666 10.4022 181.736 8.77576C183.303 7.45472 185.336 6.65723 187.558 6.65723C192.514 6.65723 196.532 10.6274 196.532 15.5249C196.532 20.4223 192.514 24.3925 187.558 24.3925C185.336 24.3925 183.303 23.595 181.736 22.274Z" fill="#F9A000"/>
<path fillRule="evenodd" clipRule="evenodd" d="M181.737 22.2741C183.666 20.6476 184.89 18.2275 184.89 15.525C184.89 12.8225 183.666 10.4024 181.737 8.77588C179.807 10.4024 178.584 12.8225 178.584 15.525C178.584 18.2275 179.807 20.6476 181.737 22.2741Z" fill="#FF5E00"/>
<rect x="212.5" y="0.5" width="64" height="31" rx="4.79412" fill="#1A1A1A" stroke="#333333"/>
<g clipPath="url(#clip0_2064_1822)">
<rect width="11" height="11" transform="translate(217 4)" fill="#1A1A1A"/>
<path d="M225.708 9.04199H219.292C218.785 9.04199 218.375 9.4524 218.375 9.95866V13.167C218.375 13.6733 218.785 14.0837 219.292 14.0837H225.708C226.215 14.0837 226.625 13.6733 226.625 13.167V9.95866C226.625 9.4524 226.215 9.04199 225.708 9.04199Z" stroke="white" strokeWidth="0.916667" strokeLinejoin="round" strokeLinejoin="round"/>
<path d="M220.208 9.04199V7.20866C220.208 6.60087 220.45 6.01798 220.88 5.58821C221.309 5.15843 221.892 4.91699 222.5 4.91699C223.108 4.91699 223.691 5.15843 224.12 5.58821C224.55 6.01798 224.792 6.60087 224.792 7.20866V9.04199" stroke="white" strokeWidth="0.916667" strokeLinejoin="round" strokeLinejoin="round"/>
</g>
<path d="M233.278 13.077C232.772 13.077 232.317 12.989 231.914 12.813C231.518 12.6297 231.206 12.3803 230.979 12.065C230.752 11.7423 230.634 11.372 230.627 10.954H231.694C231.731 11.3133 231.877 11.6177 232.134 11.867C232.398 12.109 232.779 12.23 233.278 12.23C233.755 12.23 234.129 12.1127 234.4 11.878C234.679 11.636 234.818 11.328 234.818 10.954C234.818 10.6607 234.737 10.4223 234.576 10.239C234.415 10.0557 234.213 9.91633 233.971 9.821C233.729 9.72567 233.403 9.623 232.992 9.513C232.486 9.381 232.079 9.249 231.771 9.117C231.47 8.985 231.21 8.77967 230.99 8.501C230.777 8.215 230.671 7.83367 230.671 7.357C230.671 6.939 230.777 6.56867 230.99 6.246C231.203 5.92333 231.5 5.674 231.881 5.498C232.27 5.322 232.713 5.234 233.212 5.234C233.931 5.234 234.517 5.41367 234.972 5.773C235.434 6.13233 235.694 6.609 235.753 7.203H234.653C234.616 6.90967 234.462 6.653 234.191 6.433C233.92 6.20567 233.56 6.092 233.113 6.092C232.695 6.092 232.354 6.202 232.09 6.422C231.826 6.63467 231.694 6.93533 231.694 7.324C231.694 7.60267 231.771 7.83 231.925 8.006C232.086 8.182 232.281 8.31767 232.508 8.413C232.743 8.501 233.069 8.60367 233.487 8.721C233.993 8.86033 234.4 8.99967 234.708 9.139C235.016 9.271 235.28 9.48 235.5 9.766C235.72 10.0447 235.83 10.426 235.83 10.91C235.83 11.284 235.731 11.636 235.533 11.966C235.335 12.296 235.042 12.5637 234.653 12.769C234.264 12.9743 233.806 13.077 233.278 13.077ZM242.803 9.755C242.803 9.94567 242.792 10.1473 242.77 10.36H237.952C237.989 10.954 238.19 11.4197 238.557 11.757C238.931 12.087 239.382 12.252 239.91 12.252C240.343 12.252 240.702 12.153 240.988 11.955C241.281 11.7497 241.487 11.4783 241.604 11.141H242.682C242.521 11.7203 242.198 12.1933 241.714 12.56C241.23 12.9193 240.629 13.099 239.91 13.099C239.338 13.099 238.825 12.9707 238.37 12.714C237.923 12.4573 237.571 12.0943 237.314 11.625C237.057 11.1483 236.929 10.5983 236.929 9.975C236.929 9.35167 237.054 8.80533 237.303 8.336C237.552 7.86667 237.901 7.50733 238.348 7.258C238.803 7.00133 239.323 6.873 239.91 6.873C240.482 6.873 240.988 6.99767 241.428 7.247C241.868 7.49633 242.205 7.841 242.44 8.281C242.682 8.71367 242.803 9.205 242.803 9.755ZM241.769 9.546C241.769 9.16467 241.685 8.83833 241.516 8.567C241.347 8.28833 241.116 8.07933 240.823 7.94C240.537 7.79333 240.218 7.72 239.866 7.72C239.36 7.72 238.927 7.88133 238.568 8.204C238.216 8.52667 238.014 8.974 237.963 9.546H241.769ZM243.75 9.975C243.75 9.35167 243.875 8.809 244.124 8.347C244.374 7.87767 244.718 7.51467 245.158 7.258C245.606 7.00133 246.115 6.873 246.687 6.873C247.428 6.873 248.037 7.05267 248.513 7.412C248.997 7.77133 249.316 8.27 249.47 8.908H248.392C248.29 8.54133 248.088 8.25167 247.787 8.039C247.494 7.82633 247.127 7.72 246.687 7.72C246.115 7.72 245.653 7.918 245.301 8.314C244.949 8.70267 244.773 9.25633 244.773 9.975C244.773 10.701 244.949 11.262 245.301 11.658C245.653 12.054 246.115 12.252 246.687 12.252C247.127 12.252 247.494 12.1493 247.787 11.944C248.081 11.7387 248.282 11.4453 248.392 11.064H249.47C249.309 11.68 248.986 12.175 248.502 12.549C248.018 12.9157 247.413 13.099 246.687 13.099C246.115 13.099 245.606 12.9707 245.158 12.714C244.718 12.4573 244.374 12.0943 244.124 11.625C243.875 11.1557 243.75 10.6057 243.75 9.975ZM256.152 6.972V13H255.151V12.109C254.96 12.417 254.693 12.659 254.348 12.835C254.011 13.0037 253.637 13.088 253.226 13.088C252.757 13.088 252.335 12.9927 251.961 12.802C251.587 12.604 251.29 12.3107 251.07 11.922C250.857 11.5333 250.751 11.0603 250.751 10.503V6.972H251.741V10.371C251.741 10.965 251.891 11.4233 252.192 11.746C252.493 12.0613 252.903 12.219 253.424 12.219C253.959 12.219 254.381 12.054 254.689 11.724C254.997 11.394 255.151 10.9137 255.151 10.283V6.972H256.152ZM258.843 7.951C259.019 7.60633 259.268 7.33867 259.591 7.148C259.921 6.95733 260.321 6.862 260.79 6.862V7.896H260.526C259.404 7.896 258.843 8.50467 258.843 9.722V13H257.842V6.972H258.843V7.951ZM267.446 9.755C267.446 9.94567 267.435 10.1473 267.413 10.36H262.595C262.631 10.954 262.833 11.4197 263.2 11.757C263.574 12.087 264.025 12.252 264.553 12.252C264.985 12.252 265.345 12.153 265.631 11.955C265.924 11.7497 266.129 11.4783 266.247 11.141H267.325C267.163 11.7203 266.841 12.1933 266.357 12.56C265.873 12.9193 265.271 13.099 264.553 13.099C263.981 13.099 263.467 12.9707 263.013 12.714C262.565 12.4573 262.213 12.0943 261.957 11.625C261.7 11.1483 261.572 10.5983 261.572 9.975C261.572 9.35167 261.696 8.80533 261.946 8.336C262.195 7.86667 262.543 7.50733 262.991 7.258C263.445 7.00133 263.966 6.873 264.553 6.873C265.125 6.873 265.631 6.99767 266.071 7.247C266.511 7.49633 266.848 7.841 267.083 8.281C267.325 8.71367 267.446 9.205 267.446 9.755ZM266.412 9.546C266.412 9.16467 266.327 8.83833 266.159 8.567C265.99 8.28833 265.759 8.07933 265.466 7.94C265.18 7.79333 264.861 7.72 264.509 7.72C264.003 7.72 263.57 7.88133 263.211 8.204C262.859 8.52667 262.657 8.974 262.606 9.546H266.412Z" fill="white"/>
<path d="M223.803 20.216C223.803 20.664 223.695 21.084 223.479 21.476C223.271 21.868 222.939 22.184 222.483 22.424C222.035 22.664 221.467 22.784 220.779 22.784H219.375V26H217.695V17.624H220.779C221.427 17.624 221.979 17.736 222.435 17.96C222.891 18.184 223.231 18.492 223.455 18.884C223.687 19.276 223.803 19.72 223.803 20.216ZM220.707 21.428C221.171 21.428 221.515 21.324 221.739 21.116C221.963 20.9 222.075 20.6 222.075 20.216C222.075 19.4 221.619 18.992 220.707 18.992H219.375V21.428H220.707ZM224.564 22.652C224.564 21.98 224.696 21.384 224.96 20.864C225.232 20.344 225.596 19.944 226.052 19.664C226.516 19.384 227.032 19.244 227.6 19.244C228.096 19.244 228.528 19.344 228.896 19.544C229.272 19.744 229.572 19.996 229.796 20.3V19.352H231.488V26H229.796V25.028C229.58 25.34 229.28 25.6 228.896 25.808C228.52 26.008 228.084 26.108 227.588 26.108C227.028 26.108 226.516 25.964 226.052 25.676C225.596 25.388 225.232 24.984 224.96 24.464C224.696 23.936 224.564 23.332 224.564 22.652ZM229.796 22.676C229.796 22.268 229.716 21.92 229.556 21.632C229.396 21.336 229.18 21.112 228.908 20.96C228.636 20.8 228.344 20.72 228.032 20.72C227.72 20.72 227.432 20.796 227.168 20.948C226.904 21.1 226.688 21.324 226.52 21.62C226.36 21.908 226.28 22.252 226.28 22.652C226.28 23.052 226.36 23.404 226.52 23.708C226.688 24.004 226.904 24.232 227.168 24.392C227.44 24.552 227.728 24.632 228.032 24.632C228.344 24.632 228.636 24.556 228.908 24.404C229.18 24.244 229.396 24.02 229.556 23.732C229.716 23.436 229.796 23.084 229.796 22.676ZM239.489 19.352L235.373 29.144H233.585L235.025 25.832L232.361 19.352H234.245L235.961 23.996L237.701 19.352H239.489ZM248.65 19.256C249.466 19.256 250.122 19.508 250.618 20.012C251.122 20.508 251.374 21.204 251.374 22.1V26H249.694V22.328C249.694 21.808 249.562 21.412 249.298 21.14C249.034 20.86 248.674 20.72 248.218 20.72C247.762 20.72 247.398 20.86 247.126 21.14C246.862 21.412 246.73 21.808 246.73 22.328V26H245.05V22.328C245.05 21.808 244.918 21.412 244.654 21.14C244.39 20.86 244.03 20.72 243.574 20.72C243.11 20.72 242.742 20.86 242.47 21.14C242.206 21.412 242.074 21.808 242.074 22.328V26H240.394V19.352H242.074V20.156C242.29 19.876 242.566 19.656 242.902 19.496C243.246 19.336 243.622 19.256 244.03 19.256C244.55 19.256 245.014 19.368 245.422 19.592C245.83 19.808 246.146 20.12 246.37 20.528C246.586 20.144 246.898 19.836 247.306 19.604C247.722 19.372 248.17 19.256 248.65 19.256ZM259.149 22.532C259.149 22.772 259.133 22.988 259.101 23.18H254.241C254.281 23.66 254.449 24.036 254.745 24.308C255.041 24.58 255.405 24.716 255.837 24.716C256.461 24.716 256.905 24.448 257.169 23.912H258.981C258.789 24.552 258.421 25.08 257.877 25.496C257.333 25.904 256.665 26.108 255.873 26.108C255.233 26.108 254.657 25.968 254.145 25.688C253.641 25.4 253.245 24.996 252.957 24.476C252.677 23.956 252.537 23.356 252.537 22.676C252.537 21.988 252.677 21.384 252.957 20.864C253.237 20.344 253.629 19.944 254.133 19.664C254.637 19.384 255.217 19.244 255.873 19.244C256.505 19.244 257.069 19.38 257.565 19.652C258.069 19.924 258.457 20.312 258.729 20.816C259.009 21.312 259.149 21.884 259.149 22.532ZM257.409 22.052C257.401 21.62 257.245 21.276 256.941 21.02C256.637 20.756 256.265 20.624 255.825 20.624C255.409 20.624 255.057 20.752 254.769 21.008C254.489 21.256 254.317 21.604 254.253 22.052H257.409ZM264.059 19.256C264.851 19.256 265.491 19.508 265.979 20.012C266.467 20.508 266.711 21.204 266.711 22.1V26H265.031V22.328C265.031 21.8 264.899 21.396 264.635 21.116C264.371 20.828 264.011 20.684 263.555 20.684C263.091 20.684 262.723 20.828 262.451 21.116C262.187 21.396 262.055 21.8 262.055 22.328V26H260.375V19.352H262.055V20.18C262.279 19.892 262.563 19.668 262.907 19.508C263.259 19.34 263.643 19.256 264.059 19.256ZM270.264 20.732V23.948C270.264 24.172 270.316 24.336 270.42 24.44C270.532 24.536 270.716 24.584 270.972 24.584H271.752V26H270.696C269.28 26 268.572 25.312 268.572 23.936V20.732H267.78V19.352H268.572V17.708H270.264V19.352H271.752V20.732H270.264Z" fill="white"/>
<defs>
<clipPath id="clip0_2064_1822">
<rect width="11" height="11" fill="white" transform="translate(217 4)"/>
</clipPath>
</defs>
</svg>
